<svg width="20" height="20" viewBox="0 0 20 20" fill="none" xmlns="http://www.w3.org/2000/svg">
<rect width="20" height="20" rx="10" fill="url(#paint0_linear_15083_3594)"/>
<g clip-path="url(#clip0_15083_3594)">
<path d="M12.8027 10.4219H13.9054V14.3769H12.8027V10.4219Z" fill="white"/>
<path d="M9.43111 11.1445V14.3823H8.33594V11.1445H9.43111Z" fill="white"/>
<path d="M11.6685 14.3843H10.5723V11.668H11.6685V14.3843Z" fill="white"/>
<path d="M7.29834 12.2617V14.3792H6.19727V12.2617H7.29834Z" fill="white"/>
<path d="M13.1533 7.14453C12.6323 7.14453 12.2575 7.68298 12.4962 8.17324L11.0306 9.61891C10.9328 9.57193 10.8254 9.54751 10.7166 9.54751C10.6079 9.54751 10.5005 9.57193 10.4027 9.61891L9.91099 9.13347C9.96144 9.03856 9.98789 8.93301 9.98806 8.82582C9.9892 8.71708 9.96541 8.60949 9.91848 8.51111C9.87154 8.41273 9.80267 8.32611 9.71703 8.25772C9.63139 8.18934 9.53119 8.14096 9.42393 8.11621C9.31667 8.09147 9.20513 8.091 9.09765 8.11483C8.99018 8.13866 8.88956 8.18619 8.80333 8.25384C8.71709 8.3215 8.64747 8.40754 8.59968 8.50551C8.55189 8.60349 8.52717 8.71087 8.52736 8.81962C8.52755 8.92836 8.55266 9.03566 8.60079 9.13347L7.13646 10.5791C7.03762 10.5326 6.92944 10.5087 6.81995 10.5091C6.71046 10.5096 6.60248 10.5343 6.50401 10.5816C6.40555 10.6289 6.31913 10.6974 6.25118 10.7822C6.18322 10.8669 6.13547 10.9657 6.11148 11.0712C6.08748 11.1766 6.08785 11.2861 6.11256 11.3914C6.13728 11.4967 6.18569 11.5952 6.25422 11.6795C6.32275 11.7638 6.40963 11.8317 6.50842 11.8784C6.6072 11.925 6.71535 11.949 6.82484 11.9487C6.94778 11.9493 7.06886 11.919 7.17668 11.8607C7.2845 11.8024 7.37552 11.7179 7.44117 11.6153C7.50681 11.5126 7.54493 11.3952 7.55194 11.274C7.55895 11.1528 7.53461 11.0319 7.48122 10.9225L8.94555 9.47688C9.04344 9.52378 9.15082 9.54814 9.25962 9.54814C9.36841 9.54814 9.4758 9.52378 9.57368 9.47688L10.0654 9.96232C10.0149 10.0572 9.98849 10.1628 9.98831 10.27C9.98717 10.3787 10.011 10.4863 10.0579 10.5847C10.1048 10.6831 10.1737 10.7697 10.2593 10.8381C10.345 10.9065 10.4452 10.9548 10.5524 10.9796C10.6597 11.0043 10.7712 11.0048 10.8787 10.981C10.9862 10.9571 11.0868 10.9096 11.173 10.8419C11.2593 10.7743 11.3289 10.6883 11.3767 10.5903C11.4245 10.4923 11.4492 10.3849 11.449 10.2762C11.4488 10.1674 11.4237 10.0601 11.3756 9.96232L12.8399 8.51665C13.3414 8.75709 13.8819 8.37741 13.8819 7.86787C13.8823 7.7731 13.8638 7.67918 13.8274 7.59149C13.791 7.5038 13.7374 7.42406 13.6697 7.35686C13.6021 7.28966 13.5216 7.23631 13.433 7.19987C13.3444 7.16344 13.2493 7.14463 13.1533 7.14453Z" fill="white"/>
<path d="M11.1719 5.70312L11.435 6.51287H12.2864L11.5976 7.01332L11.8607 7.82307L11.1719 7.32262L10.4831 7.82307L10.7462 7.01332L10.0574 6.51287H10.9088L11.1719 5.70312Z" fill="white"/>
<path d="M7.07031 7.26562L7.28956 7.94041H7.99908L7.42507 8.35746L7.64432 9.03224L7.07031 8.6152L6.4963 9.03224L6.71556 8.35746L6.14155 7.94041H6.85106L7.07031 7.26562Z" fill="white"/>
</g>
<defs>
<linearGradient id="paint0_linear_15083_3594" x1="8.74228e-07" y1="10" x2="20.3125" y2="10" gradientUnits="userSpaceOnUse">
<stop stop-color="#40A3F3"/>
<stop offset="1" stop-color="#1A78D3"/>
</linearGradient>
<clipPath id="clip0_15083_3594">
<rect width="9.375" height="9.375" fill="white" transform="translate(5.3125 5.3125)"/>
</clipPath>
</defs>
</svg>
