<svg width="239" height="99" viewBox="0 0 239 99" fill="none" xmlns="http://www.w3.org/2000/svg">
<path d="M170.849 98.4407H0.110596L11.83 39.4843C16.337 16.587 36.3496 0 59.7883 0H239L229.264 49.2202C223.675 77.8873 199.155 98.4407 170.849 98.4407Z" fill="black"/>
<path d="M46.6185 75.9019H32.1955L46.7993 19.6502C46.7993 19.6502 67.7129 19.6502 74.9251 19.6502C82.1366 19.6502 88.4472 25.7801 86.2836 36.778C84.1201 47.9563 76.7278 55.3483 71.139 58.0527C65.5494 60.7571 51.8473 59.3148 51.8473 59.3148L46.6185 75.9019ZM63.0257 46.3336C66.9919 46.5139 70.4173 45.0716 72.0399 42.3672C73.6626 39.843 75.2852 33.1722 67.8937 33.1722C60.5014 33.1722 58.8788 33.1722 58.8788 33.1722C58.8788 33.1722 54.9125 45.4321 55.0926 45.7927C55.2726 45.7927 59.0587 46.1533 63.0257 46.3336Z" fill="white"/>
<path d="M98.3754 76.0819C98.1954 75.9019 82.329 75.9019 82.329 75.9019L98.3754 19.47C98.3754 19.47 117.306 19.47 128.304 19.47C139.302 19.47 141.826 32.0905 140.564 40.0235C138.581 51.2017 123.977 57.3317 123.977 57.3317L133.894 76.2627H115.504L108.472 57.6923H103.423L98.3754 76.0819ZM115.323 45.6125C115.323 45.6125 121.092 46.1534 123.436 43.2687C125.78 40.3841 126.501 33.7132 121.272 33.7132C116.044 33.7132 109.554 33.7132 109.554 33.7132L106.309 44.8914L115.323 45.6125Z" fill="white"/>
<path d="M193.399 67.2512C179.877 79.8718 160.766 81.6745 150.85 71.0374C140.934 60.4 143.999 41.6495 157.521 28.8487C171.043 16.0479 190.154 14.4252 200.07 25.0625C209.986 35.6999 206.921 54.6307 193.399 67.2512ZM187.81 36.421C182.942 31.1925 173.386 31.9137 166.536 38.4043C159.684 44.7146 158.242 54.2701 163.11 59.4986C167.978 64.7272 177.533 64.0059 184.385 57.5154C191.416 51.2051 192.858 41.8298 187.81 36.421Z" fill="white"/>
</svg>
