<svg width="20" height="20" viewBox="0 0 20 20" fill="none" xmlns="http://www.w3.org/2000/svg">
<rect width="20" height="20" rx="10" fill="url(#paint0_linear_15083_3611)"/>
<path d="M14.6087 5.39195C14.5292 5.3125 14.5292 5.3125 14.5292 5.3125C13.9731 5.3125 13.0197 5.39195 12.0663 5.6303C11.0334 5.86865 10.0006 6.2659 9.365 6.98095C8.7294 7.53709 8.49105 7.93434 8.01435 8.64939C8.01435 8.64939 8.01435 8.64939 8.01435 8.72884C8.01435 8.72884 8.01435 8.72884 8.01435 8.80829C7.6171 9.28499 7.14041 10 6.34591 11.1918V11.2712C6.34591 11.3507 6.34591 11.3507 6.42536 11.3507L6.82261 11.7479L5.63086 12.8602L5.86921 13.0986L6.82261 12.1452L7.29931 12.6219L5.78976 14.052L6.02811 14.2903L7.53765 12.7808L7.9349 13.2575L6.98151 14.2109L7.21986 14.4492L8.17325 13.4958L8.2527 13.2575L8.5705 13.5753H8.7294C8.80885 13.4958 8.8883 13.4164 8.96775 13.4164C10.08 12.7013 10.7951 12.3041 11.2718 11.9863C11.9868 11.5096 12.3841 11.2712 13.0197 10.6356C13.7347 9.92059 14.132 8.96719 14.3703 7.93434C14.6087 6.98095 14.6881 6.02755 14.6881 5.4714L14.6087 5.39195ZM11.3512 10.3178C10.3978 10.3178 9.60335 9.52334 9.60335 8.56994C9.60335 7.61654 10.3978 6.82205 11.3512 6.82205C12.3046 6.82205 13.0991 7.61654 13.0991 8.56994C13.0991 9.52334 12.3046 10.3178 11.3512 10.3178Z" fill="white"/>
<path d="M7.45764 8.80859L6.34535 9.04694L5.3125 10.477L6.18645 10.6359L7.45764 8.80859Z" fill="white"/>
<path d="M9.44468 14.6087L10.9542 13.6553L11.272 12.543L9.36523 13.7347L9.44468 14.6087Z" fill="white"/>
<path d="M11.3513 7.05859C10.4774 7.05859 9.8418 7.77364 9.8418 8.64759C9.8418 9.52154 10.5568 10.1571 11.3513 10.1571C12.2253 10.1571 12.9403 9.44209 12.9403 8.64759C12.9403 7.77364 12.2253 7.05859 11.3513 7.05859ZM11.3513 9.91879C10.6363 9.91879 10.0007 9.28319 10.0007 8.56814C10.0007 7.85309 10.6363 7.21749 11.3513 7.21749C12.0664 7.21749 12.702 7.85309 12.702 8.56814C12.702 9.36264 12.0664 9.91879 11.3513 9.91879Z" fill="white"/>
<defs>
<linearGradient id="paint0_linear_15083_3611" x1="8.74228e-07" y1="10" x2="20.3125" y2="10" gradientUnits="userSpaceOnUse">
<stop stop-color="#40A3F3"/>
<stop offset="1" stop-color="#1A78D3"/>
</linearGradient>
</defs>
</svg>
