<svg width="32" height="32" viewBox="0 0 32 32" fill="none" xmlns="http://www.w3.org/2000/svg">
<g clip-path="url(#clip0_945_1262)">
<path d="M13.3122 30.275H5.03921C3.36821 30.273 2.01421 28.919 2.01221 27.248V3.027C2.01421 1.356 3.36821 0.002 5.03921 0H17.1502L26.2322 9.082V13.504C25.3642 12.89 24.3582 12.392 23.2792 12.063L23.2042 12.043V10.593H15.6352V3.026H5.03821V27.247H10.8562C11.5042 28.429 12.3242 29.431 13.2962 30.26L13.3112 30.272L13.3122 30.275ZM9.77321 24.221H8.06821V21.192H9.62821C9.59721 21.521 9.58121 21.861 9.58121 22.201C9.58121 22.201 9.58121 22.202 9.58121 22.203C9.58121 22.916 9.65121 23.613 9.78421 24.287L9.77321 24.219V24.221ZM10.3772 18.165H8.06821V15.138H12.2792C11.5052 15.999 10.8662 17 10.4052 18.095L10.3792 18.165H10.3772ZM21.2672 21.67C21.0832 21.443 20.8042 21.299 20.4912 21.299C20.2182 21.299 19.9702 21.409 19.7902 21.587C19.5792 21.781 19.4482 22.059 19.4482 22.367C19.4482 22.656 19.5632 22.918 19.7512 23.109L21.0322 24.459C22.3242 25.819 24.3142 26.032 25.6712 24.741C26.2862 24.146 26.6672 23.314 26.6672 22.392C26.6672 21.474 26.2882 20.644 25.6782 20.05L25.6772 20.049L23.5152 17.772C22.5592 16.77 21.2132 16.147 19.7222 16.147C18.3252 16.147 17.0562 16.694 16.1172 17.585L16.1192 17.583L16.0292 17.668C15.0262 18.624 14.4032 19.97 14.4032 21.461C14.4032 22.858 14.9502 24.127 15.8412 25.066L15.8392 25.064L20.8812 30.377C21.8372 31.379 23.1822 32.002 24.6722 32.002C26.0692 32.002 27.3382 31.455 28.2772 30.564L28.2752 30.566L28.3652 30.481C29.3652 29.534 29.9872 28.196 29.9872 26.714C29.9872 25.917 29.8072 25.162 29.4862 24.487L29.4992 24.518C29.2492 23.968 28.7652 23.368 28.0492 23.737C27.6982 23.921 27.4622 24.283 27.4622 24.7C27.4622 24.898 27.5152 25.083 27.6072 25.243L27.6042 25.238C28.0432 26.388 27.8712 28.064 26.9272 28.962L26.8332 29.047C26.2712 29.581 25.5102 29.91 24.6722 29.91C23.7782 29.91 22.9712 29.536 22.3992 28.936L22.3982 28.935L17.3552 23.624C16.8212 23.063 16.4932 22.302 16.4932 21.464C16.4932 20.57 16.8672 19.763 17.4682 19.191L17.4692 19.19L17.5592 19.1C18.1222 18.567 18.8832 18.239 19.7212 18.239C20.6162 18.239 21.4242 18.613 21.9972 19.212L24.1582 21.489C24.4142 21.707 24.5752 22.029 24.5752 22.389C24.5752 22.715 24.4432 23.011 24.2292 23.225C23.7072 23.718 23.0462 23.541 22.5482 23.016L21.2672 21.67Z" fill="black"/>
</g>
<defs>
<clipPath id="clip0_945_1262">
<rect width="32" height="32" fill="white"/>
</clipPath>
</defs>
</svg>
