<svg width="20" height="20" viewBox="0 0 20 20" fill="none" xmlns="http://www.w3.org/2000/svg">
<rect width="20" height="20" rx="10" fill="url(#paint0_linear_15083_3623)"/>
<g clip-path="url(#clip0_15083_3623)">
<path d="M10.8171 5.3125H8.26172V6.15885H10.8171V5.3125Z" fill="white"/>
<path d="M9.23893 10.2314H7.98242V10.8516H9.85742V10.8483V10.2314V8.29297H9.23893V10.2314Z" fill="white"/>
<path d="M9.54753 13.5794C8.99096 13.5786 8.44529 13.4251 7.96986 13.1357C7.49443 12.8464 7.10745 12.4322 6.85101 11.9382C6.59456 11.4442 6.47847 10.8894 6.51537 10.3341C6.55226 9.77873 6.74073 9.24413 7.06026 8.78843C7.3798 8.33273 7.81817 7.97337 8.3277 7.74943C8.83723 7.5255 9.39841 7.44557 9.9502 7.51833C10.502 7.59109 11.0233 7.81376 11.4573 8.16213C11.8914 8.51049 12.2216 8.9712 12.4121 9.49416H12.526C12.8284 9.49436 13.1256 9.57287 13.3887 9.72202C13.2563 9.12684 12.989 8.57 12.6074 8.09442L13.2259 7.47593C13.0363 7.25381 12.8295 7.04701 12.6074 6.85744L11.9889 7.4922C11.3035 6.92177 10.4393 6.61064 9.54753 6.6133C8.50721 6.6133 7.5095 7.02656 6.77388 7.76218C6.03826 8.4978 5.625 9.49551 5.625 10.5358C5.625 11.5761 6.03826 12.5739 6.77388 13.3095C7.5095 14.0451 8.50721 14.4584 9.54753 14.4584C9.79918 14.4563 10.05 14.429 10.2962 14.377C10.1606 14.1167 10.0672 13.8365 10.0195 13.5469C9.86286 13.5658 9.70532 13.5767 9.54753 13.5794Z" fill="white"/>
<path d="M14.9993 10.5195H11.0605V11.2682H14.9993V10.5195Z" fill="white"/>
<path d="M13.974 11.6914H10.0352V12.4401H13.974V11.6914Z" fill="white"/>
<path d="M14.804 12.9961H10.8652V13.7448H14.804V12.9961Z" fill="white"/>
</g>
<defs>
<linearGradient id="paint0_linear_15083_3623" x1="8.74228e-07" y1="10" x2="20.3125" y2="10" gradientUnits="userSpaceOnUse">
<stop stop-color="#40A3F3"/>
<stop offset="1" stop-color="#1A78D3"/>
</linearGradient>
<clipPath id="clip0_15083_3623">
<rect width="9.375" height="9.14714" fill="white" transform="translate(5.625 5.3125)"/>
</clipPath>
</defs>
</svg>
