<svg width="32" height="25" viewBox="0 0 32 25" fill="none" xmlns="http://www.w3.org/2000/svg">
<path d="M15.0998 14.6001C11.6998 14.6001 8.1998 14.6001 4.7998 14.6001C4.7998 12.3001 5.7998 11.1001 8.0998 10.7001C8.2998 10.7001 8.4998 10.8001 8.6998 10.9001C9.5998 11.8001 10.4998 11.8001 11.3998 10.9001C11.4998 10.8001 11.6998 10.6001 11.8998 10.6001C13.7998 10.7001 15.1998 12.4001 15.0998 14.6001Z" fill="black"/>
<path d="M9.99982 4.30005C11.4998 4.30005 12.4998 5.40005 12.1998 6.90005C12.0998 7.40005 11.9998 7.90005 11.8998 8.40005C11.5998 9.40005 10.7998 10 9.89982 10C8.99982 10 8.19982 9.40005 7.99982 8.40005C7.89982 7.80005 7.69982 7.20005 7.69982 6.60005C7.49982 5.30005 8.59982 4.30005 9.99982 4.30005Z" fill="black"/>
<path d="M13.4 22.5C13.5 21.4 13.6 20.3 13.8 19.2C14 18.2 14.9 17.3 15.7 16.9C15.9 16.8 16.1 16.7 16.3 16.6C11.6 16.6 7.6 16.6 2.9 16.6C2.6 16.6 2.2 16.6 1.9 16.6C1.8 16.4 1.8 16.3 1.8 16.3C1.8 11.7 1.8 7.1 1.8 2.6C1.8 2 2.1 1.8 2.6 1.8C9.8 1.8 17 1.8 24.1 1.8C24.7 1.8 24.9 2 24.9 2.6C24.9 2.8 24.9 2.9 24.9 3.1C25.5 3.2 26.1 3.3 26.6 3.6C26.6 3 26.6 2.4 26.6 1.8C26.6 0.6 26 0 24.7 0C17.1 0.1 9.5 0.0999999 1.9 0.0999999C0.6 0.0999999 0 0.7 0 1.9C0 7.1 0 12.4 0 17.6C0 18.9 0.6 19.4 1.9 19.4C4.1 19.4 6.3 19.4 8.5 19.4C8.8 19.4 9.1 19.4 9.6 19.4C9.1 20.6 8.7 21.8 8.2 22.9C8 23.4 8 23.8 8.7 23.8C10.5 23.8 11.5 23.8 13.3 23.8C13.3 23.3 13.3 22.9 13.4 22.5Z" fill="black"/>
<path d="M24.5998 14.9C26.9746 14.9 28.8998 12.7957 28.8998 10.2C28.8998 7.60426 26.9746 5.5 24.5998 5.5C22.225 5.5 20.2998 7.60426 20.2998 10.2C20.2998 12.7957 22.225 14.9 24.5998 14.9Z" fill="black"/>
<path d="M27.8999 16.5H20.8999C18.7999 16.5 17.0999 18 17.0999 19.9L16.8999 24.1H31.9999L31.7999 19.9C31.7999 18.1 30.0999 16.5 27.8999 16.5Z" fill="black"/>
</svg>
