<svg width="20" height="20" viewBox="0 0 20 20" fill="none" xmlns="http://www.w3.org/2000/svg">
<rect width="20" height="20" rx="10" fill="url(#paint0_linear_15083_3639)"/>
<g clip-path="url(#clip0_15083_3639)">
<path d="M12.7737 10.9727C12.2397 10.9727 11.765 11.1562 11.3793 11.5092C11.0085 11.8622 10.8008 12.3281 10.8008 12.8222C10.8008 13.3164 11.0085 13.7823 11.3793 14.1353C11.7501 14.4883 12.2397 14.6859 12.7589 14.6859H12.7737C13.8417 14.6859 14.7021 13.8529 14.7021 12.8364C14.6873 11.8198 13.8269 10.9868 12.7737 10.9727ZM12.744 14.1071C12.0023 14.1071 11.409 13.5423 11.409 12.8364C11.409 12.1304 12.0023 11.5657 12.744 11.5657C13.4857 11.5657 14.0791 12.1304 14.0791 12.8364C14.0791 13.5282 13.4857 14.1071 12.744 14.1071Z" fill="white"/>
<path d="M13.2193 10.5084L12.9671 10.4802C12.7446 10.4519 12.4776 10.4661 12.2402 10.5225H12.2106L12.1809 10.5084C12.0326 10.3955 11.8694 10.3813 11.6617 10.4661C10.208 11.1014 8.7246 11.1014 7.25605 10.4802C6.97421 10.3531 6.73686 10.4237 6.58853 10.6778C6.45502 10.9038 6.33635 11.1297 6.21768 11.3697C6.17318 11.4685 6.12868 11.5532 6.08417 11.6521C6.01001 11.7932 6.03967 11.8921 6.20285 12.005C6.94454 12.5133 7.7159 12.8239 8.50209 12.9228C8.90261 12.9651 9.30312 12.9792 9.7333 12.9934C9.89648 12.9934 10.0596 13.0075 10.2228 13.0075H10.2822V13.064C10.297 13.1487 10.3118 13.2334 10.3267 13.3322C10.3415 13.3746 10.3415 13.4169 10.3563 13.4593C10.3563 13.4875 10.4157 13.6005 10.4305 13.6146L10.03 13.6428C9.91131 13.657 9.79264 13.657 9.67397 13.6711C9.45146 13.6852 9.21412 13.6711 8.99161 13.657C8.7691 13.6428 8.5466 13.6146 8.32409 13.5864C8.10158 13.544 7.89391 13.5016 7.6714 13.4452C7.46372 13.3887 7.25605 13.3181 7.04838 13.2334C6.8407 13.1487 6.63303 13.064 6.44019 12.951C6.24735 12.8522 6.03967 12.7251 5.86167 12.598C5.832 12.5839 5.80233 12.5557 5.77266 12.5416C5.28315 12.2027 5.19414 11.9486 5.40182 11.4403C5.56499 11.0308 5.75783 10.6355 5.99517 10.2825C6.32152 9.77423 6.94454 9.60481 7.52306 9.85895C8.78394 10.4096 10.0745 10.4096 11.3502 9.87307C11.9436 9.61893 12.4034 9.78835 12.9226 10.2825L13.2193 10.5084Z" fill="white"/>
<path d="M13.7377 12.4005L12.5065 13.5723L11.75 12.8523L12.0912 12.5417L12.5065 12.937L13.3966 12.0898L13.7377 12.4005Z" fill="white"/>
<path d="M9.46717 9.83057C8.16179 9.83057 7.09375 8.81401 7.09375 7.57154C7.09375 6.32907 8.16179 5.3125 9.46717 5.3125C10.7725 5.3125 11.8406 6.32907 11.8406 7.57154C11.8406 8.81401 10.7725 9.83057 9.46717 9.83057ZM9.46717 5.9055C8.50297 5.9055 7.71677 6.6538 7.71677 7.57154C7.71677 8.48927 8.50297 9.23758 9.46717 9.23758C10.4314 9.23758 11.2176 8.48927 11.2176 7.57154C11.2176 6.6538 10.4314 5.9055 9.46717 5.9055Z" fill="white"/>
</g>
<defs>
<linearGradient id="paint0_linear_15083_3639" x1="8.74228e-07" y1="10" x2="20.3125" y2="10" gradientUnits="userSpaceOnUse">
<stop stop-color="#40A3F3"/>
<stop offset="1" stop-color="#1A78D3"/>
</linearGradient>
<clipPath id="clip0_15083_3639">
<rect width="9.375" height="9.375" fill="white" transform="translate(5.3125 5.3125)"/>
</clipPath>
</defs>
</svg>
