<svg width="32" height="32" viewBox="0 0 32 32" fill="none" xmlns="http://www.w3.org/2000/svg">
<g clip-path="url(#clip0_952_3879)">
<path d="M5.33333 17.3338H13.3333C14.0667 17.3338 14.6667 16.7338 14.6667 16.0005V5.33382C14.6667 4.60049 14.0667 4.00049 13.3333 4.00049H5.33333C4.6 4.00049 4 4.60049 4 5.33382V16.0005C4 16.7338 4.6 17.3338 5.33333 17.3338ZM5.33333 28.0005H13.3333C14.0667 28.0005 14.6667 27.4005 14.6667 26.6672V21.3338C14.6667 20.6005 14.0667 20.0005 13.3333 20.0005H5.33333C4.6 20.0005 4 20.6005 4 21.3338V26.6672C4 27.4005 4.6 28.0005 5.33333 28.0005ZM18.6667 28.0005H26.6667C27.4 28.0005 28 27.4005 28 26.6672V16.0005C28 15.2672 27.4 14.6672 26.6667 14.6672H18.6667C17.9333 14.6672 17.3333 15.2672 17.3333 16.0005V26.6672C17.3333 27.4005 17.9333 28.0005 18.6667 28.0005ZM17.3333 5.33382V10.6672C17.3333 11.4005 17.9333 12.0005 18.6667 12.0005H26.6667C27.4 12.0005 28 11.4005 28 10.6672V5.33382C28 4.60049 27.4 4.00049 26.6667 4.00049H18.6667C17.9333 4.00049 17.3333 4.60049 17.3333 5.33382Z" fill="black"/>
</g>
<defs>
<clipPath id="clip0_952_3879">
<rect width="32" height="32" fill="white" transform="translate(0 0.000488281)"/>
</clipPath>
</defs>
</svg>
