<svg width="20" height="20" viewBox="0 0 20 20" fill="none" xmlns="http://www.w3.org/2000/svg">
<path d="M17.9848 6.00023C17.8948 5.64071 17.7115 5.31131 17.4535 5.04528C17.1954 4.77926 16.8718 4.58605 16.5151 4.48516C15.2122 4.16699 10.0003 4.16699 10.0003 4.16699C10.0003 4.16699 4.78848 4.16699 3.48551 4.51546C3.1289 4.61635 2.80523 4.80957 2.54719 5.07559C2.28915 5.34161 2.10588 5.67101 2.01589 6.03053C1.77743 7.35285 1.66079 8.69426 1.66743 10.0379C1.65893 11.3917 1.77558 12.7433 2.01589 14.0756C2.1151 14.4239 2.30247 14.7408 2.55991 14.9956C2.81735 15.2504 3.13615 15.4344 3.48551 15.53C4.78848 15.8785 10.0003 15.8785 10.0003 15.8785C10.0003 15.8785 15.2122 15.8785 16.5151 15.53C16.8718 15.4291 17.1954 15.2359 17.4535 14.9699C17.7115 14.7039 17.8948 14.3745 17.9848 14.015C18.2214 12.7026 18.338 11.3714 18.3332 10.0379C18.3417 8.68415 18.2251 7.33251 17.9848 6.00023Z" stroke="#004DB3" stroke-width="1.66667" stroke-linecap="round" stroke-linejoin="round"/>
<path d="M8.12533 7.8881C8.12533 7.49037 8.12533 7.2915 8.20844 7.18047C8.28088 7.08372 8.39175 7.02319 8.51231 7.01458C8.65065 7.0047 8.81793 7.11224 9.1525 7.32732L12.4382 9.43954C12.7285 9.62618 12.8737 9.71949 12.9238 9.83815C12.9676 9.94183 12.9676 10.0588 12.9238 10.1625C12.8737 10.2812 12.7285 10.3745 12.4382 10.5611L9.1525 12.6733C8.81793 12.8884 8.65065 12.996 8.51231 12.9861C8.39175 12.9775 8.28088 12.9169 8.20844 12.8202C8.12533 12.7092 8.12533 12.5103 8.12533 12.1125V7.8881Z" stroke="#004DB3" stroke-width="1.66667" stroke-linecap="round" stroke-linejoin="round"/>
</svg>
